<svg xmlns="http://www.w3.org/2000/svg" xmlns:xlink="http://www.w3.org/1999/xlink" xml:space="preserve" width="150.368mm" height="150.368mm" style="shape-rendering:geometricPrecision; text-rendering:geometricPrecision; image-rendering:optimizeQuality; fill-rule:evenodd; clip-rule:evenodd" viewBox="0 0 15036.8 15036.8"> <defs>  <style type="text/css">   <![CDATA[    .fil3 {fill:#4E565A}    .fil1 {fill:#4E565A}    .fil0 {fill:white}    .fil2 {fill:#F7B704}   ]]>  </style> </defs> <g id="Layer_x0020_1">  <metadata id="CorelCorpID_0Corel-Layer"/>  <g id="_2482180515744">   <circle class="fil0" cx="7518.4" cy="7518.4" r="7518.4"/>   <g>    <path class="fil1" d="M10105.46 8831.76c-41.93,36.13 -77.47,80.61 -12.75,147.99 57.21,59.54 275.28,40.99 410.36,266.85 166.99,279.17 66.73,438.78 114.59,536.5 25.13,51.29 90.55,63.94 135.51,16.5 125.41,-132.23 -29.37,-595.25 -108.39,-694.76 -50.39,-63.46 -401.64,-391.78 -539.32,-273.08zm-5429.24 -729.28c-545.48,51.21 -1052.83,181.54 -1535.53,342.38 -127.69,42.55 -219.39,64.27 -265.88,183.99 -58.79,151.42 13.53,258.75 83.86,330.87 219.31,224.9 275.68,764.64 384.42,1259.56l276.33 0c-11.92,-55.95 -23.97,-114.71 -36.91,-176.45 -90.94,-434.43 -260.49,-916.7 29.72,-1260.89 118.3,-140.31 240.73,-244.2 459.07,-302.98 205.68,-55.41 441.69,-91.33 660.03,-113.36 449.04,-45.37 928.84,65.04 1330.64,183.2 205.22,60.37 402.84,104.85 532.04,231.45 127.99,125.41 230.99,320.51 168.6,572.65 -78.78,318.37 -169.78,612.27 -293.8,866.38l278.2 0c171.7,-429.9 262.24,-883 396.38,-980.22 327.25,-237.25 383.78,360.43 647.87,980.22l278.2 0c-70.52,-150.68 -131.4,-319.23 -187.82,-506.06 -90.76,-300.54 -304.46,-833.22 250.29,-1056.43 311.7,-125.44 873.48,-257.61 1239.15,-293.85 347.65,-34.44 1052.99,48.61 1314.07,207.53 347.27,211.39 469.17,562.69 350.47,1081.17 -40.32,176.15 -71.14,375.92 -112.58,567.64l266.36 0c77.82,-370.93 133.71,-769.18 272.41,-1082.44 75.43,-170.38 374.12,-385.5 134.73,-602.16 -82.33,-74.54 -552.47,-198.96 -702.39,-239.41 -1398.81,-377.4 -1849.49,-177.76 -3113.2,190.67 -1110.76,323.86 -1704.27,-515 -3104.73,-383.46z"/>    <path class="fil2" d="M9949.21 8881.45c-41.93,36.13 -77.47,80.61 -12.75,147.99 57.2,59.54 275.28,40.99 410.35,266.85 167,279.17 66.74,438.78 114.6,536.49 25.12,51.3 90.54,63.94 135.5,16.51 125.42,-132.23 -29.36,-595.25 -108.39,-694.76 -50.39,-63.46 -401.63,-391.78 -539.31,-273.08zm-5429.24 -729.29c-545.49,51.22 -1052.83,181.55 -1535.53,342.39 -127.7,42.55 -219.4,64.27 -265.89,183.99 -58.79,151.42 13.53,258.74 83.86,330.87 219.31,224.9 275.68,764.64 384.43,1259.55l276.32 0c-11.91,-55.94 -23.97,-114.7 -36.91,-176.44 -90.94,-434.44 -260.48,-916.71 29.72,-1260.89 118.3,-140.31 240.73,-244.2 459.08,-302.99 205.67,-55.4 441.68,-91.32 660.03,-113.36 449.04,-45.36 928.84,65.04 1330.63,183.21 205.22,60.37 402.84,104.85 532.04,231.45 127.99,125.41 230.99,320.51 168.6,572.65 -78.78,318.36 -169.78,612.27 -293.8,866.37l278.21 0c171.69,-429.9 262.23,-882.99 396.37,-980.22 327.25,-237.24 383.78,360.43 647.87,980.22l278.21 0c-70.52,-150.67 -131.4,-319.22 -187.83,-506.05 -90.76,-300.54 -304.46,-833.22 250.29,-1056.43 311.71,-125.44 873.49,-257.62 1239.15,-293.85 347.65,-34.44 1052.99,48.61 1314.07,207.52 347.28,211.4 469.17,562.7 350.47,1081.18 -40.32,176.15 -71.13,375.92 -112.58,567.63l266.37 0c77.82,-370.92 133.71,-769.17 272.41,-1082.44 75.43,-170.37 374.12,-385.5 134.72,-602.15 -82.32,-74.54 -552.46,-198.96 -702.38,-239.42 -1398.82,-377.39 -1849.5,-177.75 -3113.21,190.67 -1110.76,323.87 -1704.27,-514.99 -3104.72,-383.46z"/>    <path class="fil1" d="M3733.7 7600.5l-404.26 0c0,0 -703.67,-868.42 -329.37,-1594.55 0,0 -321.92,74.89 -404.26,479.12 -82.33,404.24 -366.83,-1557.15 808.5,-2028.75 0,0 -396.77,-269.47 -771.07,-7.47 0,0 501.6,-913.29 1631.99,-254.53l44.9 -1549.62 561.46 1033.09c0,0 411.68,-1235.22 1931.36,-1145.39 1519.69,89.84 2552.78,-531.49 3496.01,-1691.85 0,0 703.67,1310.06 -247.06,2680.01 0,0 1272.68,112.27 2088.65,-1377.45 0,0 1377.48,2006.31 -1040.54,4042.53l628.83 -119.77c0,0 -157.2,1152.86 -538.99,1489.73l-284.47 0c0,0 -688.7,-1542.13 -411.73,-2215.89 0,0 -1227.75,808.5 -3278.94,-7.5 0,0 336.9,1287.6 2350.65,1497.23 0,0 -2380.58,628.85 -4005.07,-1160.33 0,0 -157.2,853.37 651.3,1407.36 0,0 -2013.79,22.46 -2208.42,-1197.76l-269.47 1721.79z"/>    <path class="fil1" d="M4033.84 7630.49l2111.14 0c76.16,0 138.47,62.31 138.47,138.47l0 0.04c0,76.16 -62.31,138.46 -138.47,138.46l-2111.14 0c-76.16,0 -138.47,-62.3 -138.47,-138.46l0 -0.04c0,-76.16 62.31,-138.47 138.47,-138.47z"/>    <path class="fil1" d="M8554.08 7518.19c693.28,-475.16 1397.86,-433.2 2111.14,0 65.11,39.53 138.47,62.3 138.47,138.47 0,0 0,0.03 0,0.03 0,76.17 -73.9,178.84 -138.47,138.47 -774.31,-484.22 -1476.57,-474.09 -2111.14,0 -61.03,45.58 -138.47,-62.3 -138.47,-138.47 0,0 0,-0.03 0,-0.03 0,-76.17 75.63,-95.41 138.47,-138.47z"/>    <path class="fil3" d="M9670.95 9264.46c1132.97,0 2057.14,893.47 2106.67,2014.24l5.16 -5.86 0 1777.98c0,257.44 -210.63,468.07 -468.07,468.07l0 0c-233.68,0 -428.77,-173.54 -462.81,-398.1 -336.94,228.16 -743.38,361.45 -1180.95,361.45 -1164.71,0 -2108.9,-944.18 -2108.9,-2108.89 0,-1164.7 944.19,-2108.89 2108.9,-2108.89zm0 953.29c638.22,0 1155.6,517.38 1155.6,1155.6 0,638.23 -517.38,1155.61 -1155.6,1155.61 -638.23,0 -1155.61,-517.38 -1155.61,-1155.61 0,-638.22 517.38,-1155.6 1155.61,-1155.6z"/>    <path class="fil3" d="M4811.96 9264.46c1132.98,0 2057.15,893.47 2106.68,2014.24l5.16 -5.86 0 1777.98c0,257.44 -210.63,468.07 -468.07,468.07l-0.01 0c-233.67,0 -428.76,-173.54 -462.8,-398.1 -336.95,228.16 -743.38,361.45 -1180.96,361.45 -1164.7,0 -2108.89,-944.18 -2108.89,-2108.89 0,-1164.7 944.19,-2108.89 2108.89,-2108.89zm0 953.29c638.23,0 1155.61,517.38 1155.61,1155.6 0,638.23 -517.38,1155.61 -1155.61,1155.61 -638.22,0 -1155.6,-517.38 -1155.6,-1155.61 0,-638.22 517.38,-1155.6 1155.6,-1155.6z"/>   </g>  </g> </g></svg>