<svg xmlns="http://www.w3.org/2000/svg" xmlns:xlink="http://www.w3.org/1999/xlink" xml:space="preserve" width="83.9691mm" height="70.9321mm" style="shape-rendering:geometricPrecision; text-rendering:geometricPrecision; image-rendering:optimizeQuality; fill-rule:evenodd; clip-rule:evenodd" viewBox="0 0 5422.64 4580.72"> <defs>  <style type="text/css">   <![CDATA[    .str0 {stroke:#4E565A;stroke-width:4.92;stroke-miterlimit:22.9256}    .fil3 {fill:#F7B704}    .fil2 {fill:#4E565A}    .fil0 {fill:#4E565A}    .fil1 {fill:#F7B704}   ]]>  </style> </defs> <g id="Layer_x0020_1">  <metadata id="CorelCorpID_0Corel-Layer"></metadata>  <path class="fil0" d="M4546.19 2887.25c-15.15,13.05 -27.99,29.13 -4.6,53.47 20.67,21.51 99.46,14.81 148.26,96.41 60.34,100.87 24.11,158.53 41.4,193.84 9.08,18.53 32.72,23.1 48.96,5.96 45.31,-47.78 -10.61,-215.07 -39.17,-251.02 -18.2,-22.93 -145.11,-141.55 -194.85,-98.66zm-1961.6 -263.5c-197.09,18.51 -380.39,65.59 -554.79,123.71 -46.14,15.38 -79.27,23.22 -96.07,66.48 -21.24,54.71 4.89,93.48 30.3,119.54 79.24,81.26 99.61,276.27 138.9,455.08l99.83 0c-4.3,-20.21 -8.66,-41.44 -13.34,-63.75 -32.86,-156.96 -94.11,-331.21 10.74,-455.56 42.74,-50.69 86.97,-88.23 165.86,-109.47 74.31,-20.01 159.58,-32.99 238.47,-40.96 162.24,-16.39 335.59,23.5 480.76,66.19 74.14,21.81 145.55,37.88 192.23,83.62 46.25,45.32 83.46,115.8 60.92,206.9 -28.47,115.03 -61.34,221.22 -106.15,313.03l100.52 0c62.03,-155.33 94.75,-319.03 143.21,-354.16 118.24,-85.72 138.66,130.22 234.08,354.16l100.52 0c-25.48,-54.44 -47.48,-115.34 -67.86,-182.84 -32.79,-108.59 -110,-301.05 90.43,-381.69 112.62,-45.32 315.59,-93.08 447.71,-106.17 125.61,-12.44 380.45,17.56 474.78,74.98 125.47,76.38 169.51,203.31 126.63,390.63 -14.57,63.64 -25.7,135.82 -40.68,205.09l96.24 0c28.12,-134.01 48.31,-277.9 98.42,-391.09 27.25,-61.56 135.17,-139.28 48.68,-217.56 -29.75,-26.93 -199.61,-71.88 -253.78,-86.5 -505.4,-136.35 -668.22,-64.22 -1124.81,68.89 -401.32,117.02 -615.75,-186.07 -1121.74,-138.55z"></path>  <path class="fil1" d="M4489.74 2905.2c-15.15,13.05 -27.99,29.13 -4.6,53.46 20.67,21.52 99.46,14.81 148.26,96.42 60.34,100.87 24.11,158.53 41.4,193.84 9.08,18.53 32.72,23.1 48.96,5.96 45.32,-47.78 -10.61,-215.07 -39.16,-251.02 -18.2,-22.93 -145.11,-141.55 -194.85,-98.66zm-1961.6 -263.5c-197.09,18.51 -380.39,65.59 -554.79,123.71 -46.14,15.37 -79.27,23.22 -96.07,66.48 -21.24,54.7 4.89,93.48 30.3,119.54 79.24,81.25 99.61,276.27 138.9,455.08l99.83 0c-4.3,-20.21 -8.66,-41.44 -13.34,-63.75 -32.86,-156.96 -94.11,-331.21 10.74,-455.56 42.74,-50.7 86.97,-88.23 165.86,-109.47 74.31,-20.01 159.58,-32.99 238.47,-40.96 162.24,-16.39 335.59,23.5 480.76,66.19 74.14,21.81 145.55,37.88 192.23,83.62 46.25,45.31 83.46,115.8 60.92,206.9 -28.47,115.03 -61.34,221.22 -106.15,313.03l100.52 0c62.03,-155.33 94.75,-319.03 143.21,-354.16 118.24,-85.72 138.66,130.22 234.08,354.16l100.52 0c-25.48,-54.44 -47.48,-115.34 -67.86,-182.84 -32.79,-108.58 -110,-301.04 90.43,-381.69 112.62,-45.32 315.59,-93.08 447.71,-106.17 125.61,-12.44 380.45,17.57 474.78,74.98 125.47,76.38 169.51,203.3 126.63,390.63 -14.57,63.64 -25.7,135.82 -40.68,205.09l96.24 0c28.11,-134.01 48.31,-277.91 98.42,-391.09 27.25,-61.56 135.17,-139.28 48.68,-217.56 -29.75,-26.93 -199.61,-71.88 -253.78,-86.5 -505.4,-136.35 -668.22,-64.22 -1124.81,68.89 -401.32,117.01 -615.75,-186.07 -1121.74,-138.55z"></path>  <path class="fil0" d="M2244.06 2442.39l-146.06 0c0,0 -254.23,-313.76 -119,-576.12 0,0 -116.31,27.06 -146.06,173.11 -29.75,146.05 -132.54,-562.61 292.11,-733 0,0 -143.35,-97.36 -278.59,-2.69 0,0 181.23,-329.98 589.64,-91.97l16.22 -559.88 202.86 373.26c0,0 148.74,-446.29 697.81,-413.84 549.07,32.46 922.32,-192.03 1263.12,-611.27 0,0 254.23,473.33 -89.27,968.3 0,0 459.83,40.56 754.64,-497.68 0,0 497.68,724.89 -375.95,1460.58l227.2 -43.27c0,0 -56.8,416.53 -194.74,538.24l-102.78 0c0,0 -248.83,-557.17 -148.76,-800.61 0,0 -443.59,292.11 -1184.69,-2.71 0,0 121.72,465.21 849.3,540.95 0,0 -860.11,227.21 -1447.05,-419.23 0,0 -56.8,308.32 235.32,508.48 0,0 -727.59,8.12 -797.91,-432.76l-97.36 622.09z"></path>  <path class="fil0" d="M2352.5 2453.23l762.76 0c27.52,0 50.03,22.51 50.03,50.03l0 0.01c0,27.52 -22.51,50.03 -50.03,50.03l-762.76 0c-27.52,0 -50.03,-22.51 -50.03,-50.03l0 -0.01c0,-27.52 22.51,-50.03 50.03,-50.03z"></path>  <path class="fil0" d="M3985.67 2412.65c250.49,-171.68 505.05,-156.52 762.76,0 23.53,14.28 50.03,22.51 50.03,50.03 0,0 0,0.01 0,0.01 0,27.52 -26.7,64.62 -50.03,50.03 -279.76,-174.95 -533.49,-171.29 -762.76,0 -22.05,16.47 -50.03,-22.51 -50.03,-50.03 0,0 0,-0.01 0,-0.01 0,-27.52 27.32,-34.47 50.03,-50.03z"></path>  <path class="fil2" d="M613.13 3784.55c0,-150.33 121.86,-272.19 272.19,-272.19 150.33,0 272.19,121.87 272.19,272.19 0,150.32 -121.86,272.19 -272.19,272.19 -51.33,0 -99.34,-14.22 -140.31,-38.92l-78.93 105.9c-19.78,26.54 -57.68,32.08 -84.22,12.29l-0.01 0c-26.54,-19.79 -32.07,-57.68 -12.29,-84.23l88.04 -118.12c-28.1,-42.83 -44.46,-94.05 -44.46,-149.11zm123.04 0c0,-82.38 66.77,-149.15 149.15,-149.15 82.37,0 149.15,66.77 149.15,149.15 0,82.37 -66.77,149.15 -149.15,149.15 -82.38,0 -149.15,-66.78 -149.15,-149.15z"></path>  <path class="fil2" d="M614.02 3158.24c0,-150.08 121.66,-271.74 271.74,-271.74 150.08,0 271.75,121.66 271.75,271.74 0,55.09 -16.41,106.33 -44.58,149.15l165.84 0c33.35,0 60.63,27.28 60.63,60.63l0 0c0,33.35 -27.28,60.63 -60.63,60.63l-363.35 0 0 -0.28c-9.74,1.06 -19.63,1.62 -29.65,1.62 -150.08,0 -271.74,-121.67 -271.74,-271.75zm122.84 0c0,-82.24 66.66,-148.91 148.91,-148.91 82.24,0 148.91,66.66 148.91,148.91 0,82.24 -66.66,148.91 -148.91,148.91 -82.24,0 -148.91,-66.66 -148.91,-148.91z"></path>  <path class="fil2" d="M609.59 2680.21l-121.71 0c0,0 -53.34,-7.74 -65.95,53.77 0,0 -8.19,62.63 59.75,69.49l387.7 0c0,0 157.56,18.37 254.93,-140.96 0,0 36.73,-56.65 35.41,-144.73 0,0 -1.78,-55.32 -62.85,-57.53 0,0 -55.32,0.88 -60.41,62.4 0,0 2.43,43.38 -27.88,89.85 0,0 -42.49,67.05 -127.47,68.38l-148.27 0 0 -107.54c0,0 5.75,-75.24 -66.39,-70.82 0,0 -55.32,-1.54 -57.09,65.28l0.23 112.41z"></path>  <path class="fil2" d="M614.45 2316.8l0 -0.01c0,-33.59 27.48,-61.07 61.07,-61.07l424.45 0c33.59,0 61.07,27.48 61.07,61.07l0 0.01c0,33.6 -27.48,61.07 -61.07,61.07l-424.45 0c-33.59,0 -61.07,-27.47 -61.07,-61.07z"></path>  <path class="fil3" d="M405.33 2316.8l0 -0.01c0,-33.59 27.48,-61.07 61.07,-61.07l60.19 0c33.59,0 61.07,27.48 61.07,61.07l0 0.01c0,33.6 -27.48,61.07 -61.07,61.07l-60.19 0c-33.59,0 -61.07,-27.47 -61.07,-61.07z"></path>  <path class="fil2" d="M614.23 1898.95c0,-144.57 111.79,-263.02 253.65,-273.62 83.24,0.21 74.74,67.49 74.74,67.49l0 58.86 0.34 0 0 285.73c55.25,-21.69 94.38,-75.51 94.38,-138.46 0,-51.33 -26,-96.58 -65.55,-123.3 -43.29,-42.62 -15.33,-82.39 -15.33,-82.39 24.08,-43.98 71.78,-28.37 81.14,-24.78 75.49,48.89 125.44,133.84 125.44,230.47 0,151.55 -122.86,274.4 -274.4,274.4 -151.55,0 -274.4,-122.85 -274.4,-274.4zm208.78 -133.48c-49.22,24.24 -83.09,74.9 -83.09,133.48 0,58.58 33.87,109.24 83.09,133.48l0 -266.96z"></path>  <path class="fil2" d="M421.81 1481.43l0 0c0,-33.83 27.69,-61.52 61.52,-61.52l310.77 0 -177.88 -246.46c-19.8,-27.43 -13.56,-66.08 13.88,-85.88l0 0c27.44,-19.8 66.08,-13.56 85.89,13.88l132.55 183.67 210.88 -192.56c24.99,-22.82 64.09,-21.04 86.91,3.94l0 0c22.82,24.99 21.04,64.1 -3.95,86.92l-221.36 202.13 24.8 34.36 153.58 0c33.83,0 61.52,27.69 61.52,61.52l0 0c0,33.83 -27.69,61.52 -61.52,61.52l-616.08 0c-33.83,0 -61.52,-27.69 -61.52,-61.52z"></path>  <path class="fil2 str0" d="M694.54 3480.07c-0.76,-73.99 68.36,-134.54 154.63,-135.73l0.82 79.93c-34.7,0.81 -62.39,25.27 -62.08,55.12 0.3,29.85 28.49,53.91 63.21,54.22l0.83 79.92c-86.28,0.06 -156.64,-59.48 -157.4,-133.47z"></path>  <path class="fil2" d="M594.07 642.49l882.12 0 0 0.28c7.23,-0.23 149.81,-3 163.69,155.18l0 2939.06c0,0 33.46,356.81 -251.5,608.31 0,0 -204.43,235.41 -583.54,227.97 0,0 -299.83,16.11 -563.72,-235.4 0,0 -214.34,-204.42 -237.89,-494.33 0,0 -16.11,-138.76 23.55,-187.09 0,0 45.84,-79.28 157.97,-69.38 0,0 106.54,-1.87 144.95,102.21 0,0 11.46,25.1 10.22,88.28 0,0 3.72,118.01 46.46,189.25 0,0 88.59,202.56 320.27,256.47 0,0 253.36,73.71 456.55,-130.71 0,0 128.85,-151.15 137.52,-297.35l2.47 -2814.53 -709.14 0c-93,0 -169.11,-76.11 -169.11,-169.12l0 -0.01c0,-93.01 76.09,-169.11 169.11,-169.11z"></path>  <path class="fil2" d="M4389.2 3043.59c409.35,0 743.25,322.81 761.15,727.75l1.87 -2.12 0 642.39c0,93.01 -76.11,169.11 -169.12,169.11l0 0c-84.42,0 -154.91,-62.7 -167.21,-143.84 -121.74,82.44 -268.59,130.6 -426.69,130.6 -420.81,0 -761.95,-341.14 -761.95,-761.95 0,-420.82 341.14,-761.95 761.95,-761.95zm0 344.42c230.59,0 417.52,186.94 417.52,417.53 0,230.59 -186.93,417.52 -417.52,417.52 -230.59,0 -417.52,-186.93 -417.52,-417.52 0,-230.59 186.93,-417.53 417.52,-417.53z"></path>  <path class="fil2" d="M2633.63 3043.59c409.35,0 743.25,322.81 761.15,727.75l1.87 -2.12 0 642.39c0,93.01 -76.1,169.11 -169.11,169.11l-0.01 0c-84.42,0 -154.91,-62.7 -167.21,-143.84 -121.74,82.44 -268.59,130.6 -426.69,130.6 -420.81,0 -761.95,-341.14 -761.95,-761.95 0,-420.82 341.14,-761.95 761.95,-761.95zm0 344.42c230.59,0 417.53,186.94 417.53,417.53 0,230.59 -186.94,417.52 -417.53,417.52 -230.59,0 -417.52,-186.93 -417.52,-417.52 0,-230.59 186.93,-417.53 417.52,-417.53z"></path> </g></svg>