<svg xmlns="http://www.w3.org/2000/svg" xmlns:xlink="http://www.w3.org/1999/xlink" xml:space="preserve" width="158.267mm" height="54.3999mm" style="shape-rendering:geometricPrecision; text-rendering:geometricPrecision; image-rendering:optimizeQuality; fill-rule:evenodd; clip-rule:evenodd" viewBox="0 0 6727.78 2312.49"> <defs>  <style type="text/css">   <![CDATA[    .str0 {stroke:#4E565A;stroke-width:3.24;stroke-miterlimit:22.9256}    .fil3 {fill:#F7B704}    .fil2 {fill:#4E565A}    .fil0 {fill:#4E565A}    .fil1 {fill:#F7B704}   ]]>  </style> </defs> <g id="Layer_x0020_1">  <metadata id="CorelCorpID_0Corel-Layer"></metadata>  <path class="fil0" d="M6328.55 1315.18c-6.9,5.95 -12.75,13.27 -2.1,24.35 9.41,9.8 45.3,6.75 67.53,43.92 27.48,45.94 10.98,72.21 18.86,88.29 4.13,8.45 14.9,10.53 22.3,2.72 20.64,-21.76 -4.83,-97.97 -17.84,-114.34 -8.29,-10.44 -66.1,-64.48 -88.76,-44.94zm-893.53 -120.02c-89.77,8.43 -173.27,29.88 -252.71,56.35 -21.02,7 -36.11,10.58 -43.76,30.28 -9.68,24.92 2.23,42.58 13.8,54.45 36.09,37.01 45.37,125.84 63.27,207.3l45.48 0c-1.96,-9.21 -3.94,-18.88 -6.07,-29.04 -14.97,-71.5 -42.87,-150.87 4.89,-207.51 19.47,-23.09 39.62,-40.19 75.55,-49.86 33.85,-9.12 72.69,-15.03 108.63,-18.66 73.9,-7.47 152.87,10.7 218.99,30.15 33.77,9.93 66.3,17.25 87.56,38.09 21.06,20.64 38.02,52.75 27.75,94.25 -12.97,52.4 -27.95,100.77 -48.35,142.59l45.79 0c28.26,-70.75 43.16,-145.32 65.23,-161.32 53.86,-39.05 63.16,59.32 106.63,161.32l45.79 0c-11.61,-24.8 -21.63,-52.54 -30.91,-83.29 -14.94,-49.46 -50.11,-137.13 41.19,-173.86 51.3,-20.65 143.76,-42.4 203.94,-48.36 57.22,-5.67 173.3,8 216.26,34.15 57.15,34.79 77.22,92.61 57.68,177.94 -6.64,28.99 -11.71,61.87 -18.53,93.42l43.84 0c12.81,-61.05 22.01,-126.59 44.83,-178.15 12.41,-28.04 61.57,-63.44 22.17,-99.1 -13.55,-12.27 -90.92,-32.74 -115.6,-39.4 -230.21,-62.11 -304.39,-29.25 -512.36,31.38 -182.81,53.3 -280.49,-84.76 -510.97,-63.11z"></path>  <path class="fil1" d="M6302.84 1323.35c-6.9,5.95 -12.75,13.27 -2.1,24.36 9.42,9.8 45.31,6.75 67.53,43.92 27.49,45.95 10.98,72.21 18.86,88.3 4.14,8.44 14.9,10.53 22.3,2.72 20.64,-21.76 -4.83,-97.97 -17.84,-114.34 -8.29,-10.44 -66.1,-64.48 -88.76,-44.94zm-893.53 -120.02c-89.77,8.43 -173.28,29.88 -252.72,56.35 -21.02,7.01 -36.11,10.58 -43.76,30.28 -9.68,24.92 2.23,42.58 13.8,54.45 36.09,37.01 45.37,125.84 63.27,207.29l45.48 0c-1.96,-9.21 -3.95,-18.87 -6.07,-29.04 -14.97,-71.5 -42.87,-150.87 4.89,-207.52 19.47,-23.09 39.62,-40.19 75.56,-49.86 33.85,-9.12 72.69,-15.03 108.62,-18.66 73.9,-7.46 152.87,10.71 218.99,30.15 33.77,9.94 66.3,17.26 87.56,38.09 21.07,20.64 38.02,52.75 27.75,94.25 -12.97,52.4 -27.94,100.77 -48.35,142.58l45.79 0c28.26,-70.75 43.16,-145.32 65.23,-161.32 53.86,-39.04 63.16,59.32 106.63,161.32l45.79 0c-11.6,-24.8 -21.62,-52.54 -30.91,-83.28 -14.94,-49.46 -50.11,-137.13 41.19,-173.87 51.3,-20.64 143.76,-42.4 203.94,-48.36 57.22,-5.67 173.3,8 216.27,34.16 57.15,34.79 77.21,92.61 57.68,177.94 -6.64,28.99 -11.71,61.87 -18.53,93.42l43.84 0c12.8,-61.04 22,-126.59 44.83,-178.14 12.41,-28.04 61.57,-63.44 22.17,-99.1 -13.55,-12.27 -90.92,-32.74 -115.59,-39.41 -230.22,-62.11 -304.39,-29.25 -512.37,31.38 -182.81,53.3 -280.48,-84.75 -510.97,-63.11z"></path>  <path class="fil0" d="M5279.91 1112.54l-66.54 0c0,0 -115.81,-142.92 -54.21,-262.43 0,0 -52.98,12.32 -66.53,78.85 -13.55,66.53 -60.37,-256.27 133.06,-333.88 0,0 -65.3,-44.35 -126.9,-1.23 0,0 82.55,-150.31 268.59,-41.89l7.39 -255.03 92.4 170.02c0,0 67.75,-203.29 317.86,-188.51 250.11,14.78 420.13,-87.47 575.36,-278.44 0,0 115.81,215.61 -40.66,441.07 0,0 209.45,18.47 343.74,-226.7 0,0 226.7,330.2 -171.25,665.31l103.49 -19.71c0,0 -25.87,189.73 -88.71,245.17l-46.82 0c0,0 -113.35,-253.8 -67.76,-364.68 0,0 -202.06,133.06 -539.64,-1.24 0,0 55.44,211.91 386.87,246.41 0,0 -391.79,103.5 -659.14,-190.96 0,0 -25.87,140.45 107.19,231.62 0,0 -331.42,3.7 -363.46,-197.12l-44.35 283.36z"></path>  <path class="fil0" d="M5329.3 1117.47l347.44 0c12.54,0 22.79,10.25 22.79,22.79l0 0c0,12.54 -10.25,22.79 -22.79,22.79l-347.44 0c-12.54,0 -22.79,-10.25 -22.79,-22.79l0 -0c0,-12.54 10.25,-22.79 22.79,-22.79z"></path>  <path class="fil0" d="M6073.23 1098.99c114.1,-78.2 230.05,-71.3 347.45,0 10.71,6.5 22.79,10.25 22.79,22.79 0,0 0,0 0,0 0,12.54 -12.16,29.43 -22.79,22.79 -127.43,-79.69 -243.01,-78.03 -347.45,0 -10.04,7.5 -22.79,-10.25 -22.79,-22.79 0,0 0,-0 0,-0 0,-12.54 12.45,-15.7 22.79,-22.79z"></path>  <path class="fil2" d="M463.29 1386.39c191.69,0 347.08,155.39 347.08,347.08 0,191.69 -155.39,347.08 -347.08,347.08 -191.68,0 -347.08,-155.39 -347.08,-347.08 0,-65.46 18.13,-126.67 49.63,-178.92l-135.04 -100.65c-33.85,-25.22 -40.9,-73.55 -15.67,-107.4l0 -0c25.22,-33.85 73.55,-40.9 107.4,-15.67l150.62 112.27c54.61,-35.84 119.93,-56.7 190.13,-56.7zm0 156.89c105.04,0 190.19,85.15 190.19,190.19 0,105.04 -85.15,190.19 -190.19,190.19 -105.04,0 -190.19,-85.15 -190.19,-190.19 0,-105.04 85.15,-190.19 190.19,-190.19z"></path>  <path class="fil2" d="M1261.93 1387.52c191.38,0 346.51,155.14 346.51,346.52 0,191.37 -155.14,346.51 -346.51,346.51 -70.24,0 -135.59,-20.92 -190.18,-56.84l0 211.47c0,42.53 -34.79,77.32 -77.32,77.32l0 0c-42.53,0 -77.32,-34.79 -77.32,-77.32l0 -463.33 0.37 0c-1.35,-12.42 -2.06,-25.03 -2.06,-37.81 0,-191.38 155.14,-346.52 346.51,-346.52zm0 156.64c104.87,0 189.88,85.01 189.88,189.88 0,104.87 -85.01,189.87 -189.88,189.87 -104.87,0 -189.88,-85.01 -189.88,-189.87 0,-104.87 85.01,-189.88 189.88,-189.88z"></path>  <path class="fil2" d="M1871.48 1381.87l0 -155.2c0,0 9.87,-68 -68.57,-84.09 0,0 -79.85,-10.44 -88.6,76.19l0 494.37c0,0 -23.42,200.91 179.75,325.07 0,0 72.24,46.84 184.54,45.15 0,0 70.55,-2.26 73.37,-80.14 0,0 -1.13,-70.54 -79.57,-77.03 0,0 -55.31,3.1 -114.57,-35.55 0,0 -85.5,-54.18 -87.19,-162.53l0 -189.06 137.14 0c0,0 95.94,7.34 90.3,-84.65 0,0 1.97,-70.54 -83.24,-72.8l-143.34 0.29z"></path>  <path class="fil2" d="M2334.88 1388.07l0.01 0c42.83,0 77.88,35.04 77.88,77.88l0 541.22c0,42.83 -35.04,77.88 -77.88,77.88l-0.01 0c-42.83,0 -77.88,-35.04 -77.88,-77.88l0 -541.22c0,-42.83 35.04,-77.88 77.88,-77.88z"></path>  <path class="fil3" d="M2334.88 1121.42l0.01 0c42.83,0 77.88,35.04 77.88,77.88l0 76.76c0,42.83 -35.04,77.88 -77.88,77.88l-0.01 0c-42.83,0 -77.88,-35.04 -77.88,-77.88l0 -76.76c0,-42.83 35.04,-77.88 77.88,-77.88z"></path>  <path class="fil2" d="M2867.7 1387.79c184.34,0 335.38,142.55 348.91,323.43 -0.26,106.14 -86.06,95.31 -86.06,95.31l-75.06 0 0 0.43 -364.35 0c27.66,70.46 96.29,120.35 176.57,120.35 65.44,0 123.15,-33.15 157.22,-83.59 54.35,-55.19 105.06,-19.55 105.06,-19.55 56.08,30.71 36.17,91.53 31.59,103.47 -62.34,96.25 -170.67,159.94 -293.88,159.94 -193.25,0 -349.9,-156.65 -349.9,-349.9 0,-193.25 156.65,-349.9 349.9,-349.9zm170.2 266.23c-30.91,-62.76 -95.51,-105.96 -170.2,-105.96 -74.69,0 -139.29,43.19 -170.2,105.96l340.4 0z"></path>  <path class="fil2" d="M3400.1 1142.43l0 0c43.14,0 78.44,35.3 78.44,78.44l0 396.27 314.27 -226.82c34.98,-25.25 84.27,-17.28 109.52,17.7l0 0c25.25,34.98 17.28,84.27 -17.7,109.52l-234.2 169.03 245.54 268.89c29.09,31.86 26.83,81.73 -5.03,110.82l0 0c-31.86,29.09 -81.73,26.83 -110.83,-5.03l-257.74 -282.26 -43.82 31.63 0 195.83c0,43.14 -35.3,78.44 -78.44,78.44l0 0c-43.15,0 -78.45,-35.3 -78.45,-78.44l0 -785.58c0,-43.15 35.3,-78.44 78.45,-78.44z"></path>  <path class="fil2 str0" d="M851.56 1490.2c94.35,-0.97 171.55,87.16 173.06,197.17l-101.92 1.05c-1.03,-44.26 -32.23,-79.56 -70.29,-79.17 -38.06,0.4 -68.75,36.34 -69.14,80.61l-101.92 1.05c-0.07,-110.02 75.85,-199.74 170.2,-200.71z"></path>  <path class="fil2" d="M4528.32 1133.39l401.82 0 0 0.13c3.29,-0.11 68.24,-1.37 74.57,70.69l0 498.04c0,0 15.24,162.53 -114.56,277.09 0,0 -93.12,107.23 -265.81,103.84 0,0 -136.57,7.34 -256.78,-107.23 0,0 -97.63,-93.12 -108.36,-225.17 0,0 -7.34,-63.21 10.73,-85.22 0,0 20.88,-36.12 71.95,-31.6 0,0 48.53,-0.85 66.03,46.56 0,0 5.22,11.43 4.65,40.21 0,0 1.69,53.75 21.16,86.2 0,0 40.35,92.27 145.89,116.82 0,0 115.41,33.58 207.97,-59.54 0,0 58.69,-68.85 62.64,-135.45l1.13 -441.32 -323.02 0c-42.37,0 -77.03,-34.67 -77.03,-77.03l0 -0c0,-42.37 34.66,-77.03 77.03,-77.03z"></path>  <path class="fil2" d="M6257.04 1386.39c186.46,0 338.56,147.05 346.71,331.5l0.85 -0.96 0 292.62c0,42.37 -34.67,77.03 -77.03,77.03l-0 0c-38.46,0 -70.56,-28.56 -76.16,-65.52 -55.46,37.55 -122.35,59.49 -194.36,59.49 -191.69,0 -347.08,-155.39 -347.08,-347.08 0,-191.69 155.39,-347.08 347.08,-347.08zm0 156.89c105.04,0 190.19,85.15 190.19,190.19 0,105.04 -85.15,190.19 -190.19,190.19 -105.04,0 -190.19,-85.15 -190.19,-190.19 0,-105.04 85.15,-190.19 190.19,-190.19z"></path>  <path class="fil2" d="M5457.36 1386.39c186.46,0 338.56,147.05 346.71,331.5l0.85 -0.96 0 292.62c0,42.37 -34.67,77.03 -77.03,77.03l0 0c-38.46,0 -70.56,-28.56 -76.17,-65.52 -55.45,37.55 -122.34,59.49 -194.36,59.49 -191.69,0 -347.08,-155.39 -347.08,-347.08 0,-191.69 155.39,-347.08 347.08,-347.08zm0 156.89c105.04,0 190.19,85.15 190.19,190.19 0,105.04 -85.15,190.19 -190.19,190.19 -105.04,0 -190.19,-85.15 -190.19,-190.19 0,-105.04 85.15,-190.19 190.19,-190.19z"></path> </g></svg>