<?xml version="1.0" encoding="UTF-8"?>
<svg xmlns="http://www.w3.org/2000/svg" id="Capa_22" data-name="Capa 22" viewBox="0 0 24 24">
  <defs>
    <style>
      .cls-1 {
        fill-rule: evenodd;
      }
    </style>
  </defs>
  <path d="m12,0C5.373,0,0,5.373,0,12s5.373,12,12,12,12-5.373,12-12S18.627,0,12,0h0Zm0,19.579c-.816,0-1.598-.108-2.334-.31-.143-.039-.295-.028-.431.032l-1.6.707c-.419.185-.891-.113-.905-.57l-.043-1.434c-.006-.177-.085-.342-.217-.46-1.569-1.403-2.532-3.434-2.532-5.784,0-4.494,3.521-7.821,8.062-7.821s8.062,3.327,8.062,7.821-3.521,7.821-8.062,7.821h0Zm0,0"/>
  <path class="cls-1" d="m16.842,9.955l-2.369,3.758c-.377.598-1.183.747-1.749.322l-1.883-1.413c-.173-.129-.411-.129-.583.002l-2.544,1.931c-.34.257-.783-.149-.556-.51l2.369-3.758c.377-.598,1.183-.746,1.749-.322l1.883,1.413c.173.129.411.129.583-.002l2.544-1.931c.34-.257.783.149.556.51h0Zm0,0"/>
</svg>
